# xmcd
#
# Track frame offsets:
#	150
#	17790
#	34120
#	52035
#	70187
#	83485
#	98300
#	115735
#	133115
#	145772
#	159010
#
# Disc length: 2357 seconds
#
# Revision: 1
# Processed by: cddbd v1.5.2PL0 Copyright (c) Steve Scherf et al.
# Submitted via: audiograbber 1.83.01
#
DISCID=7f09330b
DTITLE=OBC - NOW
DYEAR=2001
DGENRE=R&B
TTITLE0=Viagra Man
TTITLE1=Respect Yourself
TTITLE2=Cover My Tracks
TTITLE3=Hot Night In My Kitchen
TTITLE4=I Get Along
TTITLE5=Women Who Love The Blues
TTITLE6=Better
TTITLE7=Smoke Filled Room
TTITLE8=Don't Shoot Let's Talk
TTITLE9=Louie Louie
TTITLE10=Rock On Through The Night
EXTD=
EXTT0=
EXTT1=
EXTT2=
EXTT3=
EXTT4=
EXTT5=
EXTT6=
EXTT7=
EXTT8=
EXTT9=
EXTT10=
PLAYORDER=
